<svg width="59" height="31" viewBox="0 0 59 31" fill="none" xmlns="http://www.w3.org/2000/svg">
<path d="M11.6665 30.1027C12.112 30.1742 12.2536 29.5984 13.0065 29.2194C13.7594 28.8367 14.1255 29.155 14.4467 28.7759C14.7645 28.4039 14.464 28.032 14.7127 27.1737C14.7852 26.9197 15.0753 25.9255 15.6728 25.8468C16.1632 25.7824 16.7158 26.3475 16.8471 26.8983C16.9576 27.3632 16.6986 27.5098 16.8471 27.9748C16.9783 28.386 17.2166 28.361 17.5413 28.944C17.8176 29.4411 17.7036 29.5555 17.9143 29.7737C18.2665 30.1385 18.6672 29.8989 19.3545 30.1063C20.2939 30.3853 20.432 31.0934 20.8499 30.9897C21.5131 30.8287 21.6374 28.9475 21.6512 28.7222C21.7237 27.517 21.3715 27.2595 21.6512 26.3761C21.7859 25.9469 21.9689 25.7038 22.0242 25.128C22.0553 24.8204 22.0242 24.6916 22.0242 24.0765C22.0242 23.5758 22.0449 23.1502 22.0587 22.9714C22.0829 22.6245 22.1762 21.3763 22.9325 20.3714C23.4333 19.7062 23.6751 19.8778 24.1068 19.209C24.3037 18.905 24.8183 18.1075 24.5869 17.2742C24.4038 16.6054 23.758 15.9795 23.0914 15.7828C22.7771 15.6899 22.4836 15.697 22.3454 15.4502C22.1934 15.1856 22.3972 14.9245 22.2383 14.6205C22.076 14.3129 21.6857 14.2378 21.6512 14.2343C20.995 14.1198 20.6842 14.9031 20.1039 14.7886C19.8415 14.735 19.8967 14.5776 19.3579 14.1985C19.0367 13.9732 18.6326 13.6907 18.156 13.6835C17.9177 13.6835 17.5965 13.7443 17.1683 14.0697C15.6901 15.1892 15.7764 17.2599 14.6056 17.8285C13.4417 18.3972 12.5921 16.7306 10.9757 17.2206C9.83599 17.5675 9.97068 18.4794 8.25072 19.3235C7.59797 19.6453 6.53422 20.1639 5.73986 19.7097C5.12509 19.3557 5.06638 18.644 4.51033 18.6046C4.21331 18.5832 4.17532 18.7834 3.38787 19.1017C2.80419 19.3378 2.49335 19.4594 2.2136 19.3235C1.88204 19.159 1.96148 18.8085 1.62647 18.6046C1.24656 18.3722 0.559261 18.4687 0.345129 18.8264C-0.0278737 19.4451 1.30181 20.3463 0.987524 21.4264C0.794115 22.088 0.175895 22.1453 0.117182 22.8641C0.0930057 23.1681 0.203528 23.1323 0.40039 24.0264C0.579985 24.8562 0.531633 25.1137 0.773394 25.2996C1.0117 25.482 1.15676 25.3032 1.57466 25.5214C1.79224 25.6358 1.78879 25.7038 2.21705 26.0185C2.53134 26.2509 2.69021 26.369 2.80419 26.3833C3.29462 26.4477 3.66417 25.8039 3.81958 25.9076C3.97845 26.0113 3.59509 26.6873 3.81958 26.9018C3.98536 27.0628 4.26512 26.7588 4.67266 26.9018C5.06638 27.0377 5.30123 27.492 5.36685 27.6207C5.52918 27.9354 5.48083 28.0713 5.63279 28.175C5.85729 28.3288 6.25447 28.2323 6.48587 28.0105C6.77598 27.7351 6.62402 27.4562 6.85887 27.238C7.23187 26.8911 8.01587 27.213 8.35434 27.3489C8.73425 27.5027 9.21086 27.6994 9.4768 28.1786C9.6633 28.5184 9.62186 28.7795 9.8498 28.8975C10.1157 29.0334 10.3299 28.758 10.5958 28.8975C10.8203 29.0155 10.7581 29.2587 11.0241 29.6163C11.1173 29.7415 11.3556 30.0634 11.663 30.1135L11.6665 30.1027Z" fill="white"/>
<path d="M45.558 21.0371C46.0709 20.9508 46.1992 20.5552 46.8508 19.8648C47.4608 19.2175 48.5352 18.0775 49.7587 18.02C50.8955 17.966 51.3946 18.8758 52.022 18.5234C52.3547 18.3364 52.3166 18.02 52.7498 16.6786C53.2524 15.1179 53.6718 14.3914 53.8 14.1757C54.2575 13.4097 54.5902 12.8739 55.1725 12.7372C55.7686 12.597 56.1187 12.9925 56.4653 12.7372C56.8084 12.4855 56.545 12.0432 56.8708 11.2268C57.0164 10.8636 57.2902 10.5076 57.8413 9.80275C58.2364 9.29569 58.3993 9.15185 58.4894 8.79583C58.5691 8.47937 58.5067 8.32114 58.4894 7.78891C58.4651 7.12362 58.5414 6.86829 58.5553 6.44754C58.5865 5.39387 58.1775 4.54518 57.8447 3.84753C57.3907 2.90534 57.162 2.42705 56.6317 2.08541C55.8276 1.56757 55.4394 2.08541 54.2055 1.66466C53.0028 1.2547 52.6112 0.506705 52.0566 0.740455C51.7759 0.859128 51.8348 1.0713 51.3773 1.74737C50.6529 2.80824 50.1885 2.74351 50.0048 3.42318C49.8315 4.0633 50.2093 4.2431 50.0048 4.93356C49.8176 5.56648 49.4537 5.55929 49.1972 6.19222C48.8818 6.96539 49.3185 7.2387 49.1175 8.03704C48.8506 9.09431 47.8074 9.72004 47.2598 10.0509C46.2512 10.655 45.9808 10.3602 45.5614 10.8672C44.9341 11.6224 45.3431 12.5178 44.6707 13.3198C44.2652 13.8053 43.7384 14.057 43.7384 14.057C43.6101 14.1181 43.5096 14.1541 43.4576 14.1721C42.1475 14.6216 41.3711 14.7115 40.7091 15.0819C39.5966 15.7004 39.3331 16.8224 38.9311 16.675C38.6573 16.5743 38.7543 16.0385 38.3661 15.8371C38.0369 15.6645 37.5759 15.8443 37.316 16.0888C36.7441 16.6246 36.8099 17.7934 37.316 18.2681C37.7284 18.6565 38.1201 18.2897 38.6885 18.6888C39.2465 19.0772 39.0732 19.5627 39.7387 20.2819C40.0887 20.6559 40.4318 20.8429 40.7888 21.0371C41.4786 21.4111 42.1822 21.7887 42.8095 21.5406C43.3502 21.3248 43.2635 20.8717 43.7799 20.7027C44.4454 20.4833 44.8405 21.1594 45.558 21.0371Z" fill="white"/>
</svg>
