<svg width="49" height="55" viewBox="0 0 49 55" fill="none" xmlns="http://www.w3.org/2000/svg">
<path d="M7.94006 0.5C7.95384 0.507777 7.98136 0.526815 8.06799 0.599609C8.20275 0.712843 8.38999 0.871729 8.70081 1.06445L9.0553 1.26758C9.37417 1.43738 9.7097 1.61699 10.1627 1.74023L10.3649 1.78906L10.3658 1.79004C10.6154 1.84322 10.7703 1.85154 10.8776 1.86035C10.9184 1.8637 10.9496 1.86678 10.9821 1.87305L11.0944 1.90625C11.2574 1.96803 11.3192 2.02955 11.4069 2.12305C11.5062 2.22902 11.6465 2.39081 11.903 2.5293L12.0201 2.58691L12.0231 2.58789C12.2575 2.69128 12.494 2.72499 12.7457 2.73145C12.8669 2.73455 13.0003 2.73128 13.1461 2.72461L13.6207 2.69727H13.6227C14.0589 2.66848 14.3121 2.62058 14.4606 2.59863C14.5209 2.58973 14.5508 2.58693 14.5699 2.58789L14.6149 2.59961L14.6178 2.60059C14.7168 2.63679 14.7482 2.67385 14.8453 2.80273C14.9471 2.93778 15.102 3.1454 15.4108 3.27344L15.5524 3.32227L15.5543 3.32324C15.8944 3.42005 16.1854 3.36342 16.3317 3.3418C16.3552 3.33832 16.3746 3.3367 16.3903 3.33496C16.4011 3.3641 16.4126 3.39878 16.4293 3.43457C16.4483 3.47516 16.4704 3.51676 16.4967 3.55957L16.5885 3.69141L16.5905 3.69336C16.807 3.96802 17.0536 4.09248 17.2086 4.16602C17.2056 4.17465 17.2019 4.18327 17.1989 4.19238C17.1841 4.23688 17.1703 4.28598 17.1569 4.33984L17.1188 4.51855C17.0803 4.74136 17.0828 4.89434 17.0826 4.98047C17.0799 4.98183 17.0771 4.98376 17.0739 4.98535C16.986 5.02815 16.8044 5.11101 16.651 5.32715L16.649 5.32617C16.4946 5.55076 16.4722 5.76662 16.4723 5.9082C16.3998 5.91859 16.3091 5.9335 16.2018 5.96289L16.0192 6.02148C15.9175 6.0587 15.6486 6.16499 15.3727 6.37207L15.2545 6.4668C15.07 6.62517 14.9554 6.78064 14.8815 6.88672L14.8824 6.8877C14.8728 6.88043 14.8671 6.87531 14.8649 6.87305C14.8629 6.87099 14.8621 6.8694 14.8619 6.86914C14.8608 6.86759 14.8566 6.8617 14.8444 6.83496C14.8211 6.78394 14.7452 6.57568 14.526 6.42969H14.525C14.2036 6.21454 13.8239 6.27311 13.6168 6.32227C13.4981 6.35046 13.384 6.38926 13.2858 6.42676L13.0504 6.52441C12.7761 6.64493 12.6325 6.75691 12.5192 6.85156C12.4769 6.88688 12.4496 6.91004 12.4225 6.92871L12.3248 6.97949C12.0511 7.09087 11.772 7.05147 11.2399 6.95117H11.2408C10.8946 6.88537 10.7076 6.80696 10.5133 6.7373C10.3202 6.66807 10.1168 6.60774 9.83752 6.62598L9.7135 6.63867C9.43747 6.6766 9.19808 6.79186 8.93616 6.94043L8.66565 7.09766C8.39787 7.25298 8.2523 7.36327 8.1178 7.4668C8.05705 7.51356 7.9999 7.55727 7.93225 7.60547L7.6803 7.77051H7.67932C7.1118 8.11567 6.97997 8.16933 6.81702 8.15723H6.81799C6.75518 8.15209 6.7247 8.14022 6.651 8.0957C6.58871 8.05805 6.47881 7.98306 6.32874 7.9043L6.16565 7.8252C5.76667 7.64908 5.42403 7.62308 4.95569 7.61719L4.43811 7.61328H4.43713C3.33113 7.60115 2.77278 7.59298 2.36584 7.52441L2.19983 7.49121H2.19885C1.84533 7.40899 1.56986 7.34374 1.34924 7.25391C1.18833 7.18835 1.0917 7.12253 1.03186 7.05762L0.983032 6.99316L0.982056 6.99121L0.956665 6.93457C0.953704 6.91906 0.955642 6.9049 0.958618 6.88672C0.970457 6.81459 1.00903 6.71577 1.10315 6.51074C1.26066 6.16765 1.49587 5.68077 1.64026 4.94629L1.6969 4.61621C1.78226 4.01331 1.77684 3.53926 2.03088 2.7168C2.15661 2.31266 2.24175 2.17887 2.30042 2.12695L2.3512 2.0957L2.35315 2.09473C2.39464 2.07573 2.41662 2.06892 2.59338 2.10938C2.76972 2.14975 3.0761 2.22916 3.45959 2.12012L3.46057 2.12109C3.99462 1.97123 4.25536 1.5834 4.40686 1.35742C4.47525 1.25542 4.51423 1.20166 4.54456 1.16504C4.58908 1.19974 4.64023 1.25115 4.73206 1.34766C4.87792 1.50097 5.17983 1.83894 5.65588 1.87012L5.75354 1.87207H5.75842C5.85666 1.86882 5.95781 1.85176 6.06506 1.80957C6.1643 1.77053 6.24939 1.71724 6.3219 1.66602C6.44664 1.57786 6.64813 1.41159 6.91174 1.20996L6.91077 1.20898C7.27263 0.934345 7.52448 0.745664 7.71448 0.623047C7.89754 0.504915 7.95233 0.499454 7.93713 0.5C7.93819 0.500029 7.93917 0.49996 7.94006 0.5Z" fill="white" stroke="white"/>
<path d="M46.8762 34.4962C47.0182 34.2529 46.3993 33.918 46.494 33.4492C46.5704 33.079 46.9964 33.0861 47.2585 32.6489C47.4187 32.381 47.3495 32.2259 47.2585 31.1718C47.1493 29.8886 47.2075 29.6348 46.949 29.2012C46.7524 28.8698 46.6687 28.9368 46.4685 28.5843C46.1445 28.0132 46.2427 27.6183 46.1153 27.0437C45.9406 26.2611 45.6093 26.3281 45.2889 25.5031C45.2452 25.3868 44.7428 24.0507 45.2889 22.6723C45.6093 21.8615 46.1881 21.2551 46.1881 21.2551C46.6833 20.7369 47.0291 20.6417 47.0692 20.2716C47.1165 19.8239 46.6833 19.2951 46.1954 19.1646C45.7768 19.0518 45.5911 19.3021 45.3508 19.1646C44.9576 18.9355 45.369 18.1775 45.0341 17.194C44.9685 17.0001 44.6591 16.1681 43.8873 15.7768C43.3194 15.4877 43.1009 15.7486 42.6167 15.4701C42.1107 15.181 42.209 14.8214 41.5355 13.7462C41.0695 13.0059 40.669 12.3855 40.072 12.329C39.737 12.2973 39.5259 12.463 39.373 12.329C39.0999 12.0964 39.6205 11.4759 39.373 11.0987C39.0781 10.651 37.8876 10.8202 37.0831 11.0987C36.1329 11.4301 36.2166 11.7474 35.4921 11.9589C34.1561 12.3502 33.468 11.3843 32.5688 11.8355C32.3467 11.9448 32.0154 12.5864 31.3601 13.8661C30.7885 14.9871 30.7011 15.2656 30.7885 15.59C30.9487 16.1716 31.4693 16.1399 31.8042 16.7604C32.0846 17.2786 31.8661 17.5747 31.6768 19.1611C31.6768 19.1611 31.5312 20.3703 31.6149 21.9567C31.6513 22.6864 31.7132 22.9966 31.9317 23.2892C32.2884 23.7687 32.7217 23.7334 32.9474 24.2129C33.1731 24.6817 32.8564 24.9215 33.0093 25.3833C33.275 26.1765 34.5383 26.455 34.9788 26.5537C35.8526 26.7476 36.0564 26.5396 37.5855 26.737C38.5138 26.8568 38.8997 26.9943 39.049 27.2905C39.14 27.4738 39.0817 27.6007 39.049 28.2141C39.0453 28.3093 39.0126 28.9579 39.049 29.321C39.1291 30.0896 39.6242 30.6219 40.1302 31.1683C40.3741 31.4292 40.953 32.0461 41.9105 32.4621C42.766 32.8358 42.8643 32.589 43.7526 33.0156C44.4589 33.354 44.8812 33.5585 45.278 33.9991C45.4309 34.1719 45.5656 34.3587 45.8496 34.4927C46.2282 34.6689 46.7524 34.6901 46.8653 34.4927L46.8762 34.4962Z" fill="white" stroke="white" stroke-miterlimit="10"/>
<path d="M43.3938 54.8347C43.7689 54.8657 43.8331 53.9361 44.5157 53.6917C44.7523 53.6091 44.7658 53.7123 45.6951 53.6917C46.1716 53.6814 46.4082 53.6745 46.5197 53.5919C46.8576 53.3405 46.6346 52.8861 46.8745 52.0082C46.9624 51.6915 47.1381 51.0339 47.672 50.5657C48.0573 50.2248 48.2195 50.3419 48.4696 50.0252C48.8954 49.4812 48.7602 48.6997 48.7061 48.4621C48.5912 47.9561 48.4121 47.9698 48.2938 47.5602C47.9964 46.5411 48.9697 46.0075 48.7703 44.9746C48.6487 44.3515 48.1553 43.8213 47.6754 43.5907C47.1651 43.3497 46.3473 43.2911 46.3473 43.2911C46.3473 43.2911 45.5363 43.4977 44.8131 43.7112C43.7723 44.0176 42.8058 44.3722 42.8058 44.3722C42.8058 44.3722 42.2279 45.1399 41.8021 45.8147C41.1364 46.8682 40.8018 47.3983 40.9167 47.9182C41.0417 48.4931 41.5115 48.5103 41.5655 49.0612C41.6196 49.6189 41.1533 49.7325 40.9066 50.5657C40.8491 50.7619 40.8457 50.8583 40.8964 52.4902C40.937 53.7812 40.9437 53.9292 41.0958 54.0532C41.5351 54.4181 42.2684 53.795 42.8666 54.2322C43.1978 54.4766 43.1707 54.814 43.3971 54.8347H43.3938Z" fill="white"/>
</svg>
