<svg width="45" height="42" viewBox="0 0 45 42" fill="none" xmlns="http://www.w3.org/2000/svg">
<path d="M26.1751 39.8633C26.614 39.7241 26.9281 40.6325 27.9772 41.0831C28.6409 41.3688 29.2511 41.3212 29.4474 41.2992C29.8185 41.2589 30.2074 41.0904 30.9675 40.7608C31.4635 40.5446 31.881 40.3432 32.1201 40.2223C33.4262 39.5739 33.5047 39.4164 33.7973 39.4677C34.5359 39.6032 34.7072 40.7278 35.1604 40.6509C35.3388 40.6216 35.4958 40.3065 35.8063 39.6802C36.1025 39.0758 36.0846 38.9988 36.263 38.6582C36.4522 38.2955 36.5806 38.1783 37.3657 37.2589C37.901 36.6288 38.1686 36.3138 38.3113 36.127C38.7931 35.4823 38.7859 35.3321 39.3069 34.5116C39.9778 33.4603 40.3132 32.9328 40.8806 32.5739C41.4087 32.2369 41.4373 32.453 42.4542 31.9804C43.8709 31.3248 44.1171 30.7716 44.1849 30.5812C44.2135 30.5079 44.4169 29.9365 44.1849 29.7204C43.8245 29.3834 42.7433 30.2258 42.5577 29.9878C42.4293 29.8229 42.8325 29.2625 43.0823 28.9658C43.7068 28.2222 44.3598 27.9694 44.292 27.7277C44.242 27.5518 43.8888 27.6324 43.7639 27.4053C43.5854 27.0793 44.1742 26.6544 44.2956 26.1123C44.5418 24.9987 42.5363 24.5042 42.1367 22.7752C42.0831 22.5481 42.258 21.4053 42.6077 19.1159C42.7433 18.2331 42.8182 17.8008 42.5542 17.3942C42.1045 16.6909 41.2517 17.0059 40.77 16.2623C40.4203 15.7202 40.7664 15.3942 40.3489 14.4308C40.1062 13.8667 39.9671 13.9327 39.7208 13.3539C39.6352 13.1488 39.339 12.4308 39.4068 11.5224C39.4603 10.7934 39.6887 10.7714 39.7744 9.96191C39.8386 9.35751 39.8957 8.81172 39.6174 8.34651C39.2641 7.7531 38.7431 7.9216 37.5727 7.16335C36.9767 6.77873 36.6413 6.56261 36.3665 6.14136C35.8348 5.32817 36.2452 4.86662 35.8063 3.6102C35.4494 2.58821 34.8607 1.99846 34.6894 1.83363C34.3932 1.55157 33.9436 1.11934 33.2192 0.972814C33.0122 0.928858 32.1415 0.75303 31.435 1.30615C31.2744 1.43069 30.8426 1.77136 30.8069 2.26587C30.7713 2.74939 31.1459 2.96184 31.0175 3.3428C30.9033 3.68346 30.55 3.66881 30.4929 3.98749C30.443 4.28054 30.7213 4.36845 30.7534 4.74208C30.7962 5.22194 30.3537 5.35381 30.3859 5.76407C30.4251 6.3062 31.2316 6.48569 31.1709 6.841C31.1352 7.05712 30.8355 7.01683 30.4358 7.37947C30.2003 7.59193 30.236 7.67251 29.7543 8.4564C29.3332 9.14139 29.2654 9.14872 29.2297 9.37216C29.1441 9.89598 29.4866 10.0462 29.3867 10.504C29.2868 10.9583 28.8372 11.3062 28.4411 11.4198C27.9843 11.5517 27.6596 11.3575 27.6025 11.4747C27.5383 11.6066 27.9272 11.9107 28.6516 12.5517C29.6757 13.4565 29.8791 13.7129 30.0147 14.0609C30.079 14.222 30.1111 14.4931 30.1718 15.0316C30.1932 15.2147 30.2788 15.9766 30.2752 17.2404C30.2752 17.7129 30.261 17.8155 30.2752 18.2074C30.3109 19.354 30.4465 19.5591 30.5393 19.6616C30.6927 19.8375 30.9925 20.0609 31.3565 20.1342C31.3636 20.1342 31.3922 20.1415 31.4314 20.1488C31.9595 20.2294 32.2878 20.0316 32.3235 20.0939C32.3699 20.1818 31.6955 20.5188 31.7454 20.7935C31.7704 20.9217 31.9274 20.9071 32.3235 21.1195C32.816 21.3869 32.9301 21.614 33.3726 21.7606C33.3905 21.7642 33.394 21.7679 33.6367 21.8448C34.1077 21.9987 34.1291 22.006 34.1577 22.028C34.4324 22.2368 34.4075 22.9913 34.1577 23.1049C33.8758 23.2331 33.601 22.4053 32.584 22.028C32.3592 21.9437 32.1451 21.8998 31.8489 21.7056C31.6098 21.5481 31.5456 21.4419 31.2209 21.1195C30.6642 20.5664 30.5857 20.6067 30.2253 20.2001C29.9006 19.8338 29.7364 19.6507 29.6472 19.3942C29.4795 18.8997 29.5972 18.3759 29.7114 17.8777C29.8328 17.3429 29.9719 17.1158 29.8399 16.94C29.6615 16.7056 29.1976 16.8448 29.1619 16.7019C29.1369 16.603 29.3475 16.5224 29.5865 16.222C29.6329 16.1634 29.8006 15.9546 29.8613 15.7642C30.0219 15.266 29.5223 14.6689 29.3082 14.4125C28.8193 13.8264 28.5945 13.9326 28.1413 13.3685C27.7702 12.907 27.8559 12.7532 27.5276 12.3466C27.2778 12.0389 27.0779 11.9363 26.168 11.4308C24.3659 10.4271 24.3231 10.3722 23.9841 10.2989C23.3882 10.1707 23.2062 10.2843 22.646 10.0608C22.1607 9.86667 22.1071 9.7055 21.5433 9.43077C21.2757 9.2989 20.7511 9.04615 20.0803 8.97289C19.438 8.90329 18.9491 9.02784 18.2996 9.18901C17.5824 9.3685 17.6787 9.44909 16.8794 9.64689C16.2763 9.79708 16.0265 9.80074 15.5841 10.0169C15.1273 10.2403 15.1452 10.3612 14.8204 10.4967C14.1603 10.7714 13.8498 10.3722 13.079 10.4308C12.0442 10.5077 12.0763 11.2733 10.9772 11.3685C10.4884 11.4088 10.2243 11.2806 9.40713 11.3905C8.98963 11.4454 8.7327 11.5224 8.54001 11.7348C8.37943 11.9107 8.3259 12.1121 8.23669 12.4711C8.07255 13.1195 8.21171 13.1964 8.07255 13.4308C7.87985 13.7568 7.47305 13.8484 6.72368 14.0242C6.38468 14.1048 6.19556 14.1158 5.81374 14.2513C5.38196 14.4052 5.23565 14.5297 5.15358 14.6176C4.92877 14.8557 5.00371 14.9876 4.82172 15.1561C4.53981 15.4125 3.97957 15.4418 3.60845 15.1561C3.27659 14.8997 3.22664 14.4931 3.22307 14.4491C3.19095 14.1561 3.32298 14.0902 3.27659 13.8008C3.25875 13.6872 3.18381 13.3246 2.86266 13.1524C2.65569 13.0425 2.37735 13.0242 2.17395 13.1524C1.99553 13.266 2.04192 13.3942 1.87064 13.5773C1.63155 13.8301 1.41745 13.7129 0.93571 13.9436C0.718036 14.0462 0.314806 14.2403 0.304101 14.5077C0.293396 14.7239 0.546754 14.7568 0.635964 15.1012C0.710901 15.4015 0.553888 15.5224 0.664509 15.7495C0.782267 15.9913 1.0606 16.0755 1.10343 16.0902C1.40674 16.1818 1.54948 16.0133 1.79213 16.0902C2.06333 16.1744 2.18822 16.4748 2.25959 16.6286C2.59502 17.3393 2.90548 17.255 3.60845 18.2404C4.14372 18.995 4.66114 19.7203 4.62902 20.6433C4.60761 21.2697 4.40778 21.8009 4.40778 21.8009C4.22222 22.3027 4.04023 22.4236 4.02239 22.7899C4.01169 23.028 4.08305 23.0756 4.37923 23.8082C4.77533 24.7899 4.75392 24.9731 5.01084 25.2221C5.15001 25.354 5.29632 25.4346 5.44976 25.6727C5.55681 25.8375 5.58893 25.9547 5.69598 25.9841C5.88154 26.0353 6.10635 25.7826 6.10992 25.7862C6.11348 25.7936 5.62104 26.0683 5.44976 26.5225C5.36769 26.7423 5.36055 27.0024 5.47831 27.398C5.74594 28.3211 6.2027 28.4346 6.66302 29.3211C6.8807 29.7387 7.33745 30.6215 7.10194 31.5262C6.99488 31.9328 6.82717 32.0464 6.85572 32.4017C6.8914 32.9145 7.2982 33.4493 7.81919 33.6178C8.45794 33.8266 9.05029 33.4164 9.41784 33.1673C10.1743 32.6471 10.0423 32.2625 10.7667 31.724C10.9451 31.5922 11.4804 31.4017 12.558 31.0171C13.4787 30.6874 13.8926 30.5738 14.1567 30.79C14.3672 30.9621 14.3316 31.2222 14.5135 31.2698C14.8276 31.3504 15.0916 30.6398 15.4235 30.7057C15.4734 30.7167 15.5627 30.7497 15.9195 31.4676C16.0943 31.8193 16.1336 31.9328 16.2514 32.1746C16.3406 32.3541 16.544 32.7533 16.8294 33.1636C17.304 33.8413 17.5967 33.9695 17.5467 34.2369C17.4967 34.497 17.1934 34.4933 17.1078 34.8303C17.0471 35.0647 17.1185 35.3504 17.2719 35.5373C17.5003 35.8193 17.7501 35.6874 18.2639 36.0171C18.4923 36.1636 18.6315 36.2552 18.7136 36.4384C18.867 36.7827 18.6422 37.0611 18.8028 37.2369C18.9455 37.3944 19.1596 37.2003 19.4772 37.3285C19.7984 37.4567 19.9661 37.801 20.1695 38.2186C20.3657 38.6215 20.3194 38.7131 20.4692 38.8377C20.7476 39.0648 20.9795 38.812 21.4077 38.9659C21.8859 39.138 22.2213 39.6692 22.4176 39.9842C22.5924 40.2626 22.6246 40.4018 22.753 40.4201C22.9921 40.4567 23.0956 40.0281 23.6023 39.7644C23.77 39.6765 24.0805 39.5153 24.3303 39.6362C24.5979 39.7681 24.5087 40.0977 24.8441 40.3835C24.9155 40.4457 25.1974 40.6619 25.4829 40.6032C25.879 40.5153 25.8504 39.9805 26.1751 39.8743V39.8633Z" fill="white"/>
</svg>
