<svg width="28" height="37" viewBox="0 0 28 37" fill="none" xmlns="http://www.w3.org/2000/svg">
<path d="M10.4935 1.51996C10.634 1.51229 10.6553 1.52147 10.8987 1.63812C11.1829 1.77431 11.5562 1.94539 12.1693 2.04047L12.4466 2.0766C13.0323 2.13726 13.3772 2.08401 13.6292 2.0473C13.748 2.02999 13.8062 2.02128 13.9007 2.03461L14.012 2.05609H14.014C14.324 2.12709 14.4507 2.23438 14.6546 2.41058C14.8909 2.61472 15.2857 2.9756 15.9739 3.06L16.1165 3.07367H16.1214C16.7382 3.10889 17.1332 2.89195 17.4085 2.75238C17.5835 2.66367 17.7879 2.56063 18.1253 2.45844L18.511 2.35687C18.7826 2.29508 18.992 2.26752 19.515 2.19965L19.514 2.19867C19.9149 2.14702 20.2096 2.11121 20.4319 2.09222C20.4368 2.39198 20.4835 2.88843 20.8441 3.33929L20.9368 3.44769L20.9398 3.45062C21.1031 3.62394 21.2839 3.74949 21.4788 3.83636C21.6572 3.91586 21.8228 3.94977 21.8958 3.96527C21.9334 3.97326 21.9516 3.97728 21.9671 3.9809C21.9676 3.98248 21.9685 3.98403 21.9691 3.98578C21.9769 4.01217 21.9861 4.04964 21.9984 4.10883C22.0401 4.31092 22.0967 4.70603 22.2698 5.18695L22.3519 5.39789L22.3528 5.39984C22.4722 5.68615 22.96 6.92479 24.1204 7.6059V7.60492C24.6197 7.89834 25.049 7.97145 25.3021 8.01312C25.2957 8.16494 25.2859 8.39168 25.2962 8.68109L25.3216 9.08344V9.08441C25.3995 9.90621 25.5857 10.3778 25.7132 10.7231C25.811 10.9878 25.8517 11.1123 25.8275 11.4125C25.8063 11.6634 25.7626 11.7776 25.6985 12.0121C25.6289 12.2674 25.5704 12.5765 25.6497 12.976L25.6927 13.1528C25.8501 13.7061 26.1533 14.0062 26.3441 14.1909C26.4964 14.3383 26.5328 14.3745 26.5775 14.477V14.478C26.6664 14.6875 26.6624 14.916 26.6028 15.2319L26.5257 15.5795V15.5825C26.4573 15.8677 26.3861 16.0031 26.2806 16.1791C26.1869 16.3353 26.044 16.5523 25.8802 16.8686L25.7103 17.2202L25.7093 17.2221C25.4327 17.8384 25.2908 18.4269 25.1448 19.2045L24.9925 20.0532C24.7119 21.6403 24.7476 22.3862 25.0589 22.9711L25.1253 23.0864L25.1263 23.0883C25.2301 23.2565 25.34 23.3895 25.4534 23.5004C25.5015 23.5474 25.5499 23.5893 25.5911 23.6235C25.5827 23.6495 25.5755 23.6833 25.5609 23.7231C25.4769 23.9516 25.3102 24.3434 25.178 24.8901L25.1234 25.1332V25.1342C25.0485 25.5043 25.019 25.8021 24.9964 26.1762L24.9749 26.5805C24.9393 27.2931 24.9717 27.6877 24.9974 27.975C25.0188 28.2141 25.0231 28.2672 24.9925 28.4223C24.9433 28.6703 24.8307 28.9804 24.6663 29.2377C24.5397 29.4358 24.4171 29.551 24.3167 29.6118L24.2239 29.6557C24.1984 29.6642 24.2204 29.6762 24.0247 29.6332C23.8019 29.5843 23.4463 29.5043 22.9691 29.5912L22.7571 29.6391L22.7552 29.6401C22.2228 29.7853 21.8925 30.0493 21.6194 30.3315C21.4075 30.5505 21.3039 30.6855 21.1224 30.8705L20.9075 31.0766V31.0776C20.3914 31.5524 20.0553 31.6842 19.7073 31.8256C19.3179 31.9839 18.8634 32.1696 18.387 32.6811L18.181 32.9213V32.9223C17.7455 33.4753 17.5954 33.954 17.4944 34.226C17.4358 34.384 17.4083 34.441 17.3538 34.4916L17.2874 34.5444L17.2825 34.5483C17.2164 34.5963 17.1835 34.6134 17.0394 34.6401C16.9398 34.6585 16.8302 34.6722 16.6429 34.6996C16.5547 34.7125 16.4571 34.7277 16.3489 34.7455L15.9915 34.81C15.0365 34.9953 14.5676 35.1983 14.2025 35.3676C13.9995 35.4617 13.8946 35.5153 13.7073 35.5473L13.4866 35.5727H13.4837C13.2923 35.5882 12.8608 35.6211 12.3734 35.5551C11.8747 35.4876 11.4215 35.3305 11.1077 35.0483L11.0267 34.975C10.9984 34.948 10.9635 34.9185 10.9251 34.8842L9.43878 33.5463V34.2211C9.16675 34.2024 8.82206 34.2188 8.37823 34.3061L7.99738 34.392C7.51799 34.5143 7.21207 34.6397 7.00519 34.7319C6.89121 34.5677 6.69491 34.2715 6.40167 33.9496L6.25323 33.7934C5.60505 33.1394 5.04536 32.9197 4.64484 32.7651C4.40397 32.6721 4.31769 32.6353 4.2464 32.559L4.17413 32.4653L4.17316 32.4633L4.09015 32.3217C3.96808 32.0774 3.92503 31.7797 3.91827 31.3325L3.92511 30.7182V30.7133C3.94084 29.9326 3.97554 29.5557 4.12628 29.2934C4.23091 29.1131 4.44114 28.9321 4.81769 28.7797C5.19321 28.6278 5.65801 28.5367 6.14386 28.4907C6.15265 28.4898 6.16145 28.4885 6.17023 28.4877C6.51165 28.4687 6.83993 28.4618 7.12531 28.4614C7.30953 28.4611 7.47253 28.4655 7.60577 28.4692C7.69792 28.474 7.77682 28.4785 7.84015 28.4828C7.88615 28.486 7.93802 28.4896 7.97198 28.4916C7.98685 28.4925 8.01791 28.4941 8.05011 28.4946C8.06097 28.4947 8.10726 28.4958 8.16339 28.4907C8.18289 28.4889 8.2668 28.481 8.36847 28.4496C8.41395 28.4356 8.5393 28.3954 8.67218 28.2963C8.81139 28.1925 9.07452 27.9288 9.07452 27.4936C9.0744 27.0361 8.78146 26.7798 8.70148 26.7153C8.59616 26.6303 8.49806 26.5869 8.46222 26.5717C8.3805 26.5372 8.31216 26.5212 8.29425 26.517C8.24441 26.5056 8.20242 26.5004 8.18781 26.4985C8.14991 26.4935 8.11157 26.49 8.08331 26.4877C8.02171 26.4829 7.9421 26.4788 7.85187 26.475C7.78544 26.4722 7.70982 26.4703 7.62628 26.4682C7.58706 26.4664 7.54596 26.463 7.50323 26.4614C7.11264 26.4465 6.57245 26.4432 5.98859 26.4965C5.84847 26.5049 5.70569 26.5144 5.56183 26.5268L5.00421 26.5854C4.84964 26.6034 4.51782 26.6491 4.07648 26.6H4.07745C4.035 26.5952 3.9315 26.5834 3.80402 26.56C3.73734 26.5478 3.6716 26.5345 3.61066 26.519L3.44464 26.4682L3.44269 26.4672L3.38898 26.4457C3.27638 26.3957 3.11218 26.2704 2.59308 25.5756L2.30304 25.1782H2.30206C1.90563 24.6276 1.63089 24.242 1.44562 23.9526C1.292 23.7126 1.24894 23.6109 1.24054 23.5932C1.22504 23.4986 1.22737 23.455 1.2298 23.434C1.23346 23.4026 1.24202 23.3612 1.2796 23.2397C1.35198 23.0056 1.46654 22.6702 1.53448 22.1225L1.55988 21.8745C1.63902 20.9612 1.51618 20.3568 1.44855 19.9653C1.4024 19.6981 1.40726 19.6433 1.42023 19.6196L1.43488 19.5991L1.43585 19.5971C1.45058 19.5709 1.48653 19.5135 1.66241 19.395C1.85999 19.2618 2.1373 19.1137 2.60089 18.8676L2.59991 18.8666C3.04369 18.6316 3.29679 18.5459 3.62042 18.3959C3.81411 18.3062 4.47298 18.0231 4.59015 17.2758C4.65073 16.891 4.53366 16.5684 4.37921 16.3354C4.25491 16.1479 4.09067 15.9984 4.013 15.9262C3.87005 15.7934 3.74804 15.6833 3.63019 15.5346L3.513 15.3705L3.50909 15.3657L3.39093 15.1625C3.3409 15.0678 3.28529 14.9494 3.23761 14.8178C3.16327 14.6126 3.12708 14.4265 3.12921 14.2709L3.14386 14.1254C3.15135 14.0907 3.15885 14.0738 3.16144 14.0678C3.16361 14.0628 3.16496 14.0597 3.16827 14.0551C3.1812 14.0374 3.21201 14.0016 3.33722 13.8959C3.55843 13.7093 3.91811 13.4313 4.32159 12.9243L4.49738 12.6918L4.49835 12.6899C4.74468 12.3461 4.84501 12.1299 4.98663 11.7778C5.11182 11.4665 5.28676 11.0085 5.69562 10.0952L5.69464 10.0942C6.19758 8.97344 6.43892 8.44477 6.62921 8.12543L6.70831 7.99945L6.70929 7.99847C7.10427 7.41233 7.42779 7.13426 7.71906 6.86761C8.01303 6.59848 8.42534 6.21748 8.5423 5.52386L8.56183 5.38129V5.37836C8.65304 4.47011 8.17628 3.81357 7.97003 3.50238C7.89355 3.38698 7.84759 3.3124 7.81769 3.25922C7.9118 3.17753 8.05644 3.0614 8.27667 2.90082L8.64288 2.64203C9.26991 2.20836 9.6919 1.91785 10.0208 1.72797C10.1886 1.63113 10.3016 1.57974 10.3743 1.55219L10.4886 1.52094L10.4935 1.51996Z" fill="white" stroke="white" stroke-width="2"/>
</svg>
