<svg width="40" height="52" viewBox="0 0 40 52" fill="none" xmlns="http://www.w3.org/2000/svg">
<path d="M6.16157 42.3607C6.10171 42.2578 3.53465 43.9472 2.98532 44.6287C2.85503 44.7884 2.75995 44.9623 2.75995 44.9623C2.57684 45.2924 2.49233 45.6295 2.4712 45.8567C2.40782 46.5523 2.87968 46.6801 2.98532 47.5461C3.06631 48.2205 2.80573 48.3554 2.98532 48.6215C3.31985 49.122 4.2037 48.5967 5.21433 49.1575C5.76718 49.4627 5.92212 49.8531 6.16157 49.7715C6.57709 49.6331 6.55948 48.3199 6.51018 48.3128C6.45736 48.3057 5.93621 49.7289 6.51018 50.5381C6.77781 50.9179 7.33418 51.2267 7.80252 51.0741C8.19691 50.9463 8.3765 50.5381 8.41171 50.4601C8.64412 49.9348 8.35889 49.6047 8.41171 49.0794C8.47862 48.4263 9.01034 48.004 9.78151 47.39C11.0034 46.4175 11.9155 46.2932 11.9155 45.7786C11.9155 45.516 11.6795 45.5124 11.3837 45.012C10.9858 44.3341 10.9929 43.6278 11.0034 43.0173C11.014 42.3571 11.1337 41.8709 11.2323 41.4805C11.433 40.6926 11.6513 39.8336 12.2993 39.0244C12.7078 38.5169 13.0106 38.3678 12.9859 38.0271C12.9542 37.6189 12.4965 37.6047 12.1479 37.0297C11.9859 36.7635 11.9366 36.2347 11.8415 35.1877C11.7781 34.4636 11.7429 34.1016 11.764 33.9597C11.8978 33.0475 12.4155 32.9907 12.6021 32.1176C12.7606 31.3723 12.4084 31.3013 12.5246 30.3501C12.6338 29.4592 12.9542 29.4202 12.9824 28.6606C12.9895 28.4867 13.0247 27.5746 12.4472 26.8931C11.9964 26.3607 11.6478 26.5382 11.2288 25.9703C10.7957 25.3882 10.7745 24.6713 10.771 24.5897C10.7604 23.9047 11.0598 23.603 10.8485 23.2835C10.6302 22.9606 10.1196 22.9748 10.0879 22.9748C9.46811 23.0032 9.0209 23.6065 8.6406 24.1247C8.05606 24.9197 8.13353 25.2321 7.72857 25.4308C7.20037 25.6899 6.9081 25.2356 6.20383 25.3528C5.27419 25.5089 4.5664 26.5027 4.29878 27.2729C4.00651 28.1176 4.37625 28.3057 3.99242 29.0936C3.69311 29.7148 3.30224 29.9313 3.30576 30.4991C3.30576 30.7689 3.39379 30.7689 3.53465 31.3439C3.6755 31.9295 3.76354 32.2951 3.68607 32.65C3.59451 33.0723 3.21773 33.3705 2.46768 33.9561C1.71059 34.5453 1.52748 34.5453 1.02041 35.0315C0.552069 35.4823 0.270361 35.752 0.182327 36.1815C0.0802083 36.6748 0.347831 36.8061 0.562633 37.7928C0.724615 38.5382 0.721093 39.1451 0.71405 39.5603C0.71405 39.7307 0.699965 40.3199 0.562633 41.0972C0.421779 41.8851 0.312617 41.9596 0.161199 42.7866C-0.0113467 43.7059 -0.0923376 44.1744 0.161199 44.5541C0.439386 44.9694 0.960545 45.0652 1.09788 45.0901C1.8268 45.2249 2.42542 44.8665 4.28469 43.6207C5.53477 42.7831 6.16157 42.3642 6.15805 42.3607H6.16157Z" fill="white"/>
<path d="M17.2054 19.3645C17.9795 19.2997 17.9904 18.7557 19.0648 18.2548C20.2261 17.7108 20.5553 18.1864 22.2881 17.5775C23.3734 17.1956 23.7894 16.8173 23.898 16.7128C24.4189 16.2192 24.3248 15.9778 24.8277 15.6031C25.6597 14.9834 26.6654 15.0915 26.8101 15.1095C27.3238 15.1744 27.2696 15.3185 27.8014 15.4194C28.7456 15.5959 29.0241 15.1563 30.2179 15.0915C31.3358 15.0302 31.6071 15.3905 32.0159 15.0915C32.5549 14.6988 32.5658 13.7296 32.573 13.2576C32.5839 12.501 32.3777 12.256 32.5802 11.7768C32.725 11.4345 32.9601 11.2472 33.3797 10.9121C33.7922 10.5807 34.0237 10.4906 34.8051 10.0474C35.6661 9.56104 36.0966 9.31964 36.2919 9.12148C36.7984 8.61347 36.6971 8.36848 37.2832 7.82444C37.5219 7.60466 37.8113 7.33444 38.2744 7.14709C38.9545 6.86967 39.4682 6.98856 39.6382 6.65349C39.7214 6.49136 39.6708 6.31482 39.6382 6.19953C39.4537 5.5474 38.77 5.46814 38.2129 4.9277C37.6883 4.41249 37.985 4.17469 37.4062 3.13706C37.1819 2.73353 36.3824 1.29597 35.3622 1.28516C34.8702 1.28156 34.8159 1.61303 34.248 1.59501C33.5606 1.5734 33.4304 1.0834 32.6996 0.975314C32.0702 0.881639 32.005 1.22031 31.2743 1.22391C30.2758 1.22391 30.1347 0.593406 29.2918 0.607818C28.7637 0.615024 28.8469 0.863624 27.3094 1.59862C26.4665 2.00214 25.4499 2.39846 25.4499 2.39846C25.4499 2.39846 24.8241 3.73154 23.9016 3.94051C23.2504 4.08822 22.8778 3.58021 22.5377 3.81801C22.1181 4.10984 22.639 4.91329 22.2266 5.48255C21.7057 6.20313 20.4865 5.44652 19.3759 6.19953C18.4462 6.83364 18.6705 7.79561 17.8891 8.01179C17.0498 8.24598 16.3986 7.24437 15.7221 7.57944C15.364 7.75958 15.4761 8.07664 14.9769 8.75038C14.6043 9.25839 14.21 9.53221 13.5516 9.98258C12.3505 10.8112 12.043 10.6707 11.7536 11.1535C11.3882 11.766 11.5763 12.501 11.7536 13.1892C11.8766 13.6611 12.0647 14.1439 12.9944 15.5959C13.9133 17.0299 14.3872 17.7612 15.0384 18.3125C15.6859 18.8565 16.3661 19.433 17.2054 19.3609V19.3645Z" fill="white"/>
</svg>
