<svg width="42" height="38" viewBox="0 0 42 38" fill="none" xmlns="http://www.w3.org/2000/svg">
<path d="M30.6058 34.5424C31.9646 35.1324 33.2005 33.3273 34.331 33.8752C35.2544 34.3247 34.7734 35.7049 36.227 36.9902C36.5605 37.2852 37.0556 37.7101 37.7157 37.668C38.4389 37.6188 39.1903 37.0218 39.2711 36.3932C39.3202 35.9963 39.085 35.7154 39.2711 35.4942C39.4431 35.287 39.717 35.4555 40.0119 35.2308C40.2647 35.0341 40.4086 34.6443 40.3279 34.3317C40.2436 34.0016 39.9592 33.9595 39.9592 33.6926C39.9592 33.4573 40.1804 33.4011 40.3419 33.1131C40.5666 32.7128 40.3068 32.5021 40.3525 31.74C40.3981 30.9815 40.679 30.7883 40.4999 30.4196C40.3419 30.0965 40.0961 30.1843 39.9101 29.8366C39.7345 29.51 39.8855 29.3028 39.8574 28.5688C39.8328 27.884 39.6959 27.9402 39.7521 27.6698C39.9066 26.9253 40.8335 26.9569 41.1776 26.086C41.2337 25.9455 41.4023 25.4609 41.1776 24.9762C41.1635 24.9446 40.9072 24.4073 40.3841 24.2879C40.0646 24.2142 39.9733 24.3757 39.8012 24.2879C39.3659 24.0596 39.8504 22.9675 39.3272 22.4898C38.9972 22.1913 38.618 22.4407 38.3757 22.1211C38.1405 21.805 38.2985 21.2818 38.4284 20.8533C38.6285 20.1966 38.8146 20.2317 38.7971 19.9543C38.7584 19.3257 37.8034 19.2484 37.3189 18.2089C37.189 17.9315 37.1083 17.626 37.1083 17.626C36.9327 16.9692 37.0977 16.8042 36.9503 16.5689C36.6799 16.1334 35.7951 16.165 34.9419 16.2002C34.6189 16.2142 34.2538 16.2493 33.7271 16.1615C33.369 16.1018 33.1899 16.0702 33.039 15.9333C32.6141 15.547 32.9582 14.8481 32.6703 14.6655C32.3578 14.4688 31.8698 15.2133 31.0342 15.3011C30.4794 15.3608 30.0581 15.0974 29.2892 14.6023C27.7759 13.6295 27.7127 12.9131 26.7542 12.7094C25.9537 12.5408 25.2444 12.885 25.0619 12.9728C24.1244 13.4293 24.1385 14.0825 22.9482 14.9289C22.3654 15.3433 21.6211 15.712 21.4174 15.5118C21.2419 15.3362 21.6316 14.9008 21.4174 14.5075C21.2208 14.1492 20.6415 14.0544 20.2553 14.086C19.6689 14.1352 19.5706 14.4759 19.0931 14.4548C18.8368 14.4442 18.7771 14.3389 18.0363 13.8718C17.0356 13.2432 16.7196 13.1624 16.5581 13.1308C16.2527 13.0711 15.8243 12.9903 15.5013 13.2362C15.1467 13.5101 15.094 14.0439 15.08 14.1879C15.0449 14.5426 15.1362 14.7463 15.08 14.7708C14.9606 14.82 14.7289 13.8437 13.9178 13.187C13.2297 12.6286 12.5099 12.6076 12.4923 12.2353C12.4783 11.9579 12.8821 11.8455 12.861 11.4943C12.8434 11.1747 12.5029 11.1185 12.4818 10.806C12.4643 10.5075 12.7697 10.4443 12.9663 10.0123C13.1419 9.62601 13.1805 9.04656 12.9137 8.69187C12.6574 8.35122 12.3484 8.51276 12.0148 8.16509C11.6216 7.7507 11.9025 7.36088 11.5935 7.00268C11.1722 6.51804 10.477 7.02726 9.53254 6.58126C9.47636 6.55316 8.47922 6.06502 8.42305 5.31349C8.38794 4.85695 8.73202 4.67433 8.68638 4.04572C8.66882 3.81745 8.64424 3.44168 8.39145 3.25204C7.95959 2.92895 7.39782 3.54001 6.83606 3.25204C6.39367 3.02377 6.48846 2.51105 5.9899 2.30034C5.69146 2.17391 5.46324 2.27575 5.1964 2.30034C4.00265 2.4092 3.48652 0.825369 2.60876 0.874535C1.65727 0.927212 0.702268 2.87276 0.916442 4.46714C0.948041 4.70945 1.04635 5.43289 1.55194 6.10365C1.99433 6.69364 2.35948 6.72875 2.92476 7.52945C3.18106 7.89117 3.40577 8.22128 3.45141 8.69187C3.47599 8.95877 3.4163 8.9693 3.29342 9.80161C3.20213 10.4127 3.15649 10.7252 3.18809 11.1221C3.20213 11.3152 3.21617 11.3012 3.34608 11.9684C3.49355 12.727 3.56728 13.1097 3.60941 13.4996C3.69368 14.2967 3.59186 14.3073 3.71474 14.662C3.84114 15.0167 4.03425 15.259 4.40291 15.719C4.75752 16.158 4.8137 16.144 5.09107 16.5127C5.48431 17.036 5.68092 17.2994 5.6739 17.6224C5.65986 18.1598 5.14725 18.3564 5.25258 18.7322C5.32982 19.0131 5.63528 18.9569 5.88808 19.266C6.23918 19.6944 5.94074 20.1685 5.99341 21.3239C6.02852 22.0825 6.04607 22.4617 6.3094 22.8024C6.42527 22.9534 6.53762 23.0342 8.00172 23.5961C9.01992 23.9894 9.15685 24.021 9.37454 24.0175C9.99248 24.007 10.2172 23.719 10.5894 23.8595C10.9861 24.0105 10.9966 24.4424 11.2775 24.9165C11.9516 26.0614 13.0857 25.5662 14.0267 26.6619C14.7008 27.445 14.3532 27.9788 15.1888 28.776C15.2836 28.8638 15.719 29.2712 16.4036 29.517C17.9906 30.0824 18.6577 28.9762 20.1534 29.359C20.7784 29.5205 21.4666 30.0473 22.8464 31.1044C23.4784 31.589 23.7171 31.8278 24.2192 31.9507C25.1216 32.172 25.42 31.6627 26.4382 31.6873C27.7303 31.7154 28.7309 32.5618 29.1312 32.9024C30.1529 33.7663 29.9387 34.2475 30.6093 34.5389L30.6058 34.5424Z" fill="white"/>
</svg>
